<?xml version="1.0" encoding="UTF-8" standalone="no"?>
<svg
   width="293"
   height="285"
   version="1.1"
   id="svg1"
   sodipodi:docname="inkscape-approved-404.svg"
   inkscape:version="1.3 (0e150ed, 2023-07-21)"
   xmlns:inkscape="http://www.inkscape.org/namespaces/inkscape"
   xmlns:sodipodi="http://sodipodi.sourceforge.net/DTD/sodipodi-0.dtd"
   xmlns="http://www.w3.org/2000/svg"
   xmlns:svg="http://www.w3.org/2000/svg">
  <defs
     id="defs1" />
  <sodipodi:namedview
     id="namedview1"
     pagecolor="#505050"
     bordercolor="#eeeeee"
     borderopacity="1"
     inkscape:showpageshadow="0"
     inkscape:pageopacity="0"
     inkscape:pagecheckerboard="0"
     inkscape:deskcolor="#505050"
     inkscape:zoom="1.7844167"
     inkscape:cx="119.08653"
     inkscape:cy="91.906784"
     inkscape:window-width="1680"
     inkscape:window-height="997"
     inkscape:window-x="0"
     inkscape:window-y="25"
     inkscape:window-maximized="0"
     inkscape:current-layer="svg1" />
  <g
     id="g1">
    <title
       id="title1">Layer 1</title>
    <ellipse
       fill="#4c4c4c"
       stroke="#4c4c4c"
       stroke-width="4"
       cx="71.5"
       cy="21"
       id="svg_42"
       rx="4.5"
       ry="4.5" />
    <ellipse
       fill="#4c4c4c"
       stroke="#4c4c4c"
       stroke-width="4"
       cx="239.5"
       cy="49.5"
       id="svg_44"
       rx="4.5"
       ry="4.5" />
    <rect
       fill="#4c4c4c"
       stroke="#4c4c4c"
       stroke-width="4"
       x="26.40877"
       y="85.81294"
       width="83.18246"
       height="29.37412"
       id="svg_41"
       transform="rotate(-15.5424, 68, 100.5)" />
    <rect
       fill="#4c4c4c"
       stroke="#4c4c4c"
       stroke-width="4"
       x="177.76954"
       y="205.15296"
       width="84.96092"
       height="48.69408"
       id="svg_38"
       transform="rotate(-15.8743, 220.25, 229.5)" />
    <rect
       fill="#4c4c4c"
       stroke="#4c4c4c"
       stroke-width="4"
       x="100"
       y="93.5"
       width="160.5"
       height="29"
       id="svg_39"
       transform="rotate(13.2636, 180.25, 108)" />
    <rect
       fill="#4c4c4c"
       stroke="#4c4c4c"
       stroke-width="4"
       x="27.81702"
       y="177.55166"
       width="167.84124"
       height="68"
       id="svg_37"
       transform="rotate(13.4509, 111.738, 211.552)" />
    <rect
       fill="#4c4c4c"
       stroke="#4c4c4c"
       stroke-width="4"
       x="104.5"
       y="113.5"
       width="164.5"
       height="131"
       id="svg_36" />
    <rect
       fill="#4c4c4c"
       stroke="#4c4c4c"
       stroke-width="4"
       x="19"
       y="100.5"
       width="194.5"
       height="126"
       id="svg_35" />
    <path
       d="m159.20945,160.65667c0,0 0,-0.33311 0,-0.99933c0,-0.66623 -0.15283,-1.56345 -0.3331,-1.99867c-0.12747,-0.30775 0,-0.66621 0,-0.99933c0,-0.33311 0.25494,-0.71695 0,-1.33244c-0.1803,-0.43524 -0.33313,-0.33311 -0.33313,-0.33311c0,-0.33311 0,-0.33311 0,-0.33311c-0.3331,0 -0.3331,0 -0.3331,0c0,0 -0.33313,0 -0.33313,0c0,0 -0.3331,0 -0.3331,0c-0.3331,0 -0.3331,0 -0.66623,0c0,0 -0.3331,0 -0.3331,0c0,0 -0.33313,0 -0.33313,0c-0.3331,0 -0.69156,-0.20563 -0.99933,-0.33311c-0.43521,-0.18028 -0.66623,-0.33311 -0.66623,-0.33311c-0.3331,-0.3331 -0.6662,-0.3331 -0.6662,-0.3331c0,0 -0.33313,0 -0.33313,0c0,0 -0.3331,0 -0.3331,0c0,0 -0.3331,-0.33311 -0.66623,-0.33311c0,0 -0.3331,0 -0.3331,0c0,0 -0.33313,0 -0.33313,0c0,0 0,0 0,0c0,0 0,0 -0.3331,0l0,0l0.3331,0l0,0"
       id="svg_132"
       stroke-width="4"
       stroke="#ff5656"
       fill="#ff5656" />
    <line
       stroke-linecap="undefined"
       stroke-linejoin="undefined"
       id="svg_133"
       y2="229.75567"
       x2="167.12152"
       y1="225.34073"
       x1="148.68915"
       stroke-width="4"
       stroke="#ff5656"
       fill="none" />
    <line
       stroke-linecap="undefined"
       stroke-linejoin="undefined"
       id="svg_178"
       y2="219.25499"
       x2="60.42945"
       y1="214.84005"
       x1="41.99708"
       stroke-width="4"
       stroke="#ffaa56"
       fill="none" />
    <rect
       id="svg_180"
       height="7.99874"
       width="18.16381"
       y="207.25532"
       x="40.57413"
       stroke-width="4"
       stroke="#ffaa56"
       fill="#ffaa56" />
    <path
       d="m49.85674,133.96954c0,0 0,-0.33311 0,-0.99933c0,-0.66623 -0.15283,-1.56345 -0.3331,-1.99867c-0.12747,-0.30775 0,-0.66621 0,-0.99933c0,-0.33311 0.25494,-0.71695 0,-1.33244c-0.1803,-0.43524 -0.33313,-0.33311 -0.33313,-0.33311c0,-0.33311 0,-0.33311 0,-0.33311c-0.3331,0 -0.3331,0 -0.3331,0c0,0 -0.33313,0 -0.33313,0c0,0 -0.3331,0 -0.3331,0c-0.3331,0 -0.3331,0 -0.66623,0c0,0 -0.3331,0 -0.3331,0c0,0 -0.33313,0 -0.33313,0c-0.3331,0 -0.69156,-0.20563 -0.99933,-0.33311c-0.43521,-0.18028 -0.66623,-0.33311 -0.66623,-0.33311c-0.3331,-0.3331 -0.6662,-0.3331 -0.6662,-0.3331c0,0 -0.33313,0 -0.33313,0c0,0 -0.3331,0 -0.3331,0c0,0 -0.3331,-0.33311 -0.66623,-0.33311c0,0 -0.3331,0 -0.3331,0c0,0 -0.33313,0 -0.33313,0c0,0 0,0 0,0c0,0 0,0 -0.3331,0l0,0l0.3331,0l0,0"
       id="svg_138"
       stroke-width="4"
       stroke="#5656ff"
       fill="#5656ff" />
    <line
       id="svg_136"
       y2="122.31065"
       x2="40.52962"
       y1="133.96954"
       x1="40.19651"
       stroke-width="4"
       stroke="#5656ff"
       fill="none" />
    <line
       transform="rotate(-11.5544, 50.19, 126.641)"
       id="svg_137"
       y2="130.56544"
       x2="59.09013"
       y1="122.71672"
       x1="41.28956"
       stroke-width="4"
       stroke="#5656ff"
       fill="none" />
    <line
       transform="rotate(-11.5544, 159.543, 153.328)"
       id="svg_131"
       y2="157.25257"
       x2="168.44283"
       y1="149.40385"
       x1="150.64227"
       stroke-width="4"
       stroke="#ff5656"
       fill="none" />
    <line
       stroke-linecap="undefined"
       stroke-linejoin="undefined"
       id="svg_171"
       y2="233.24931"
       x2="170.0927"
       y1="228.27558"
       x1="149.32737"
       stroke-width="4"
       stroke="#56ff56"
       fill="none" />
    <rect
       id="svg_172"
       height="7.99874"
       width="15.66568"
       y="232.74784"
       x="150.57066"
       stroke-width="4"
       stroke="#56ff56"
       fill="#56ff56" />
    <line
       id="svg_134"
       y2="232.26884"
       x2="167.20412"
       y1="207.62536"
       x1="167.20412"
       stroke-width="4"
       stroke="#ff5656"
       fill="none" />
    <rect
       id="svg_129"
       height="67.62159"
       width="17.5714"
       y="157.32556"
       x="149.88238"
       stroke-width="4"
       stroke="#ff5656"
       fill="#ff5656" />
    <line
       stroke-linecap="undefined"
       stroke-linejoin="undefined"
       id="svg_7"
       y2="95.0188"
       x2="19"
       y1="228"
       x1="19"
       stroke-width="4"
       stroke="#000"
       fill="none" />
    <line
       stroke-linecap="undefined"
       stroke-linejoin="undefined"
       id="svg_8"
       y2="137"
       x2="186"
       y1="97"
       x1="19"
       stroke-width="4"
       stroke="#000"
       fill="none" />
    <line
       stroke-linecap="undefined"
       stroke-linejoin="undefined"
       id="svg_10"
       y2="138.0188"
       x2="184"
       y1="269"
       x1="184"
       stroke-width="4"
       stroke="#000"
       fill="none" />
    <path
       id="svg_45"
       d="m-221.41847,-369.62391l-15.05659,4.86339c0.06658,0.13328 30.0466,-9.86006 15.05659,-4.86339z"
       opacity="NaN"
       stroke-width="4"
       stroke="#000"
       fill="none" />
    <path
       id="svg_47"
       d="m-168.40183,-372.2921l-27.71482,9.52694c0.06658,0.13328 55.36305,-19.18717 27.71482,-9.52694z"
       opacity="NaN"
       stroke-width="4"
       stroke="#000"
       fill="none" />
    <path
       id="svg_48"
       d="m-178.39315,-372.6232l-28.38104,9.19383l28.38104,-9.19383z"
       opacity="NaN"
       stroke-width="4"
       stroke="#000"
       fill="none" />
    <path
       id="svg_49"
       d="m-171.40115,-370.95834l-27.38171,9.52694l27.38171,-9.52694z"
       opacity="NaN"
       stroke-width="4"
       stroke="#000"
       fill="none" />
    <path
       id="svg_50"
       d="m-183.05871,-375.95499l-28.71415,9.19383c0.06658,0.13328 57.36172,-18.52095 28.71415,-9.19383z"
       opacity="NaN"
       stroke-width="4"
       stroke="#000"
       fill="none" />
    <path
       id="svg_52"
       d="m-188.72294,-375.95568l-27.04859,9.52694l27.04859,-9.52694z"
       opacity="NaN"
       stroke-width="4"
       stroke="#000"
       fill="none" />
    <path
       id="svg_53"
       d="m-193.05806,-379.95236l-24.71682,9.52694l32.31179,8.994l-7.59498,-18.52095l0.00001,0.00001z"
       opacity="NaN"
       stroke-width="4"
       stroke="#000"
       fill="none" />
    <path
       id="svg_55"
       d="m-205.72561,-370.29142c-16.98868,6.32911 -35.97602,-0.99933 -16.98868,6.32911c18.98734,7.32845 33.97735,-12.65823 16.98868,-6.32911z"
       opacity="NaN"
       stroke-width="4"
       stroke="#000"
       fill="none" />
    <path
       id="svg_56"
       d="m-141.72493,-295.82575l-41.03927,22.18518l40.30646,31.64557l0.7328,-53.83075l0.00001,0z"
       opacity="NaN"
       stroke-width="4"
       stroke="#000"
       fill="none" />
    <path
       id="svg_62"
       d="m-169.71226,-278.47334l-36.0426,22.51829l36.0426,-22.51829z"
       opacity="NaN"
       stroke-width="4"
       stroke="#000"
       fill="none" />
    <line
       stroke-linecap="undefined"
       stroke-linejoin="undefined"
       id="svg_76"
       y2="134.32593"
       x2="35.98868"
       y1="206.34777"
       x1="35.98868"
       stroke-width="4"
       stroke="#000"
       fill="none" />
    <line
       stroke-linecap="undefined"
       stroke-linejoin="undefined"
       id="svg_77"
       y2="164.63906"
       x2="167.90075"
       y1="231.66422"
       x1="167.90075"
       stroke-width="4"
       stroke="#000"
       fill="none" />
    <path
       id="svg_80"
       d="m36.18251,206.31413c0.34038,10.55191 15.65768,13.27499 15.58963,13.1388"
       opacity="NaN"
       stroke-width="4"
       stroke="#000"
       fill="none" />
    <path
       id="svg_81"
       d="m35.8494,134.43226c0,-13.89386 16.32529,-10.76774 16.25585,-10.90671"
       opacity="NaN"
       stroke-width="4"
       stroke="#000"
       fill="none" />
    <path
       id="svg_83"
       d="m167.76147,231.57832c0,15.32312 -17.98801,11.6589 -18.05461,11.52561"
       opacity="NaN"
       stroke-width="4"
       stroke="#000"
       fill="none" />
    <path
       id="svg_84"
       d="m168.09458,165.28917c0,-13.32445 -16.65556,-17.6549 -16.72216,-17.78817"
       opacity="NaN"
       stroke-width="4"
       stroke="#000"
       fill="none" />
    <rect
       id="svg_104"
       height="67.62159"
       width="17.5714"
       y="135.64227"
       x="62.83146"
       stroke-width="4"
       stroke="#ffff56"
       fill="#ffff56" />
    <line
       id="svg_105"
       y2="127.31448"
       x2="62.83142"
       y1="138.97338"
       x1="62.4983"
       stroke-width="4"
       stroke="#ffff56"
       fill="none" />
    <line
       transform="rotate(-11.5544, 72.492, 131.645)"
       id="svg_106"
       y2="135.56928"
       x2="81.39192"
       y1="127.72056"
       x1="63.59136"
       stroke-width="4"
       stroke="#ffff56"
       fill="none" />
    <path
       d="m72.15853,138.97338c0,0 0,-0.33311 0,-0.99933c0,-0.66623 -0.15283,-1.56345 -0.3331,-1.99867c-0.12747,-0.30775 0,-0.66621 0,-0.99933c0,-0.33311 0.25494,-0.71695 0,-1.33244c-0.1803,-0.43524 -0.33313,-0.33311 -0.33313,-0.33311c0,-0.33311 0,-0.33311 0,-0.33311c-0.3331,0 -0.3331,0 -0.3331,0c0,0 -0.33313,0 -0.33313,0c0,0 -0.3331,0 -0.3331,0c-0.3331,0 -0.3331,0 -0.66623,0c0,0 -0.3331,0 -0.3331,0c0,0 -0.33313,0 -0.33313,0c-0.3331,0 -0.69156,-0.20563 -0.99933,-0.33311c-0.43521,-0.18028 -0.66623,-0.33311 -0.66623,-0.33311c-0.3331,-0.3331 -0.6662,-0.3331 -0.6662,-0.3331c0,0 -0.33313,0 -0.33313,0c0,0 -0.3331,0 -0.3331,0c0,0 -0.3331,-0.33311 -0.66623,-0.33311c0,0 -0.3331,0 -0.3331,0c0,0 -0.33313,0 -0.33313,0c0,0 0,0 0,0c0,0 0,0 -0.3331,0l0,0l0.3331,0l0,0"
       id="svg_108"
       stroke-width="4"
       stroke="#ffff56"
       fill="none" />
    <line
       stroke-linecap="undefined"
       stroke-linejoin="undefined"
       id="svg_109"
       y2="208.07238"
       x2="80.0706"
       y1="203.65744"
       x1="61.63824"
       stroke-width="4"
       stroke="#ffff56"
       fill="none" />
    <line
       id="svg_110"
       y2="210.58555"
       x2="80.1532"
       y1="185.94207"
       x1="80.1532"
       stroke-width="4"
       stroke="#ffff56"
       fill="none" />
    <rect
       id="svg_111"
       height="67.62159"
       width="17.5714"
       y="141.30516"
       x="85.14992"
       stroke-width="4"
       stroke="#56ffff"
       fill="#56ffff" />
    <line
       id="svg_112"
       y2="132.97738"
       x2="85.14987"
       y1="144.63627"
       x1="84.81676"
       stroke-width="4"
       stroke="#56ffff"
       fill="none" />
    <line
       transform="rotate(-11.5544, 94.807, 137.308)"
       id="svg_113"
       y2="141.23217"
       x2="103.71037"
       y1="133.38345"
       x1="85.90981"
       stroke-width="4"
       stroke="#56ffff"
       fill="none" />
    <path
       d="m94.47699,144.63627c0,0 0,-0.33311 0,-0.99933c0,-0.66623 -0.15283,-1.56345 -0.3331,-1.99867c-0.12747,-0.30775 0,-0.66621 0,-0.99933c0,-0.33311 0.25494,-0.71695 0,-1.33244c-0.1803,-0.43524 -0.33313,-0.33311 -0.33313,-0.33311c0,-0.33311 0,-0.33311 0,-0.33311c-0.3331,0 -0.3331,0 -0.3331,0c0,0 -0.33313,0 -0.33313,0c0,0 -0.3331,0 -0.3331,0c-0.3331,0 -0.3331,0 -0.66623,0c0,0 -0.3331,0 -0.3331,0c0,0 -0.33313,0 -0.33313,0c-0.3331,0 -0.69156,-0.20563 -0.99933,-0.33311c-0.43521,-0.18028 -0.66623,-0.33311 -0.66623,-0.33311c-0.3331,-0.3331 -0.6662,-0.3331 -0.6662,-0.3331c0,0 -0.33313,0 -0.33313,0c0,0 -0.3331,0 -0.3331,0c0,0 -0.3331,-0.33311 -0.66623,-0.33311c0,0 -0.3331,0 -0.3331,0c0,0 -0.33313,0 -0.33313,0c0,0 0,0 0,0c0,0 0,0 -0.3331,0l0,0l0.3331,0l0,0"
       id="svg_114"
       stroke-width="4"
       stroke="#56ffff"
       fill="#56ffff" />
    <line
       stroke-linecap="undefined"
       stroke-linejoin="undefined"
       id="svg_115"
       y2="213.73527"
       x2="102.38906"
       y1="209.32033"
       x1="83.95669"
       stroke-width="4"
       stroke="#56ffff"
       fill="none" />
    <line
       id="svg_116"
       y2="216.24844"
       x2="102.47166"
       y1="191.60496"
       x1="102.47166"
       stroke-width="4"
       stroke="#56ffff"
       fill="none" />
    <rect
       id="svg_117"
       height="67.62159"
       width="17.5714"
       y="146.63494"
       x="106.80217"
       stroke-width="4"
       stroke="#56ff56"
       fill="#56ff56" />
    <line
       id="svg_118"
       y2="138.30716"
       x2="106.80212"
       y1="149.96605"
       x1="106.46901"
       stroke-width="4"
       stroke="#56ff56"
       fill="none" />
    <line
       transform="rotate(-11.5544, 116.462, 142.638)"
       id="svg_119"
       y2="146.56195"
       x2="125.36262"
       y1="138.71323"
       x1="107.56206"
       stroke-width="4"
       stroke="#56ff56"
       fill="none" />
    <path
       d="m116.12924,149.96605c0,0 0,-0.33311 0,-0.99933c0,-0.66623 -0.15283,-1.56345 -0.3331,-1.99867c-0.12747,-0.30775 0,-0.66621 0,-0.99933c0,-0.33311 0.25494,-0.71695 0,-1.33244c-0.1803,-0.43524 -0.33313,-0.33311 -0.33313,-0.33311c0,-0.33311 0,-0.33311 0,-0.33311c-0.3331,0 -0.3331,0 -0.3331,0c0,0 -0.33313,0 -0.33313,0c0,0 -0.3331,0 -0.3331,0c-0.3331,0 -0.3331,0 -0.66623,0c0,0 -0.3331,0 -0.3331,0c0,0 -0.33313,0 -0.33313,0c-0.3331,0 -0.69156,-0.20563 -0.99933,-0.33311c-0.43521,-0.18028 -0.66623,-0.33311 -0.66623,-0.33311c-0.3331,-0.3331 -0.6662,-0.3331 -0.6662,-0.3331c0,0 -0.33313,0 -0.33313,0c0,0 -0.3331,0 -0.3331,0c0,0 -0.3331,-0.33311 -0.66623,-0.33311c0,0 -0.3331,0 -0.3331,0c0,0 -0.33313,0 -0.33313,0c0,0 0,0 0,0c0,0 0,0 -0.3331,0l0,0l0.3331,0l0,0"
       id="svg_120"
       stroke-width="4"
       stroke="#56ff56"
       fill="#56ff56" />
    <line
       stroke-linecap="undefined"
       stroke-linejoin="undefined"
       id="svg_121"
       y2="219.06505"
       x2="124.0413"
       y1="214.65011"
       x1="105.60894"
       stroke-width="4"
       stroke="#56ff56"
       fill="none" />
    <line
       id="svg_122"
       y2="221.57823"
       x2="124.12391"
       y1="196.93474"
       x1="124.12391"
       stroke-width="4"
       stroke="#56ff56"
       fill="none" />
    <rect
       id="svg_123"
       height="67.62159"
       width="17.5714"
       y="151.96472"
       x="128.45392"
       stroke-width="4"
       stroke="#ff56ff"
       fill="#ff56ff" />
    <line
       id="svg_124"
       y2="143.63694"
       x2="128.45388"
       y1="155.29583"
       x1="128.12076"
       stroke-width="4"
       stroke="#ff56ff"
       fill="none" />
    <line
       transform="rotate(-11.5544, 138.114, 147.967)"
       id="svg_125"
       y2="151.89173"
       x2="147.01438"
       y1="144.04301"
       x1="129.21382"
       stroke-width="4"
       stroke="#ff56ff"
       fill="none" />
    <path
       d="m137.78099,155.29583c0,0 0,-0.33311 0,-0.99933c0,-0.66623 -0.15283,-1.56345 -0.3331,-1.99867c-0.12747,-0.30775 0,-0.66621 0,-0.99933c0,-0.33311 0.25494,-0.71695 0,-1.33244c-0.1803,-0.43524 -0.33313,-0.33311 -0.33313,-0.33311c0,-0.33311 0,-0.33311 0,-0.33311c-0.3331,0 -0.3331,0 -0.3331,0c0,0 -0.33313,0 -0.33313,0c0,0 -0.3331,0 -0.3331,0c-0.3331,0 -0.3331,0 -0.66623,0c0,0 -0.3331,0 -0.3331,0c0,0 -0.33313,0 -0.33313,0c-0.3331,0 -0.69156,-0.20563 -0.99933,-0.33311c-0.43521,-0.18028 -0.66623,-0.33311 -0.66623,-0.33311c-0.3331,-0.3331 -0.6662,-0.3331 -0.6662,-0.3331c0,0 -0.33313,0 -0.33313,0c0,0 -0.3331,0 -0.3331,0c0,0 -0.3331,-0.33311 -0.66623,-0.33311c0,0 -0.3331,0 -0.3331,0c0,0 -0.33313,0 -0.33313,0c0,0 0,0 0,0c0,0 0,0 -0.3331,0l0,0l0.3331,0l0,0"
       id="svg_126"
       stroke-width="4"
       stroke="#ff56ff"
       fill="#ff56ff" />
    <line
       stroke-linecap="undefined"
       stroke-linejoin="undefined"
       id="svg_127"
       y2="224.39483"
       x2="145.69306"
       y1="219.97989"
       x1="127.2607"
       stroke-width="4"
       stroke="#ff56ff"
       fill="none" />
    <line
       id="svg_128"
       y2="226.908"
       x2="145.77566"
       y1="202.26452"
       x1="145.77566"
       stroke-width="4"
       stroke="#ff56ff"
       fill="none" />
    <line
       id="svg_130"
       y2="148.99777"
       x2="149.88233"
       y1="160.65667"
       x1="149.54922"
       stroke-width="4"
       stroke="#ff5656"
       fill="none" />
    <rect
       id="svg_135"
       height="67.62159"
       width="17.5714"
       y="130.63843"
       x="40.52967"
       stroke-width="4"
       stroke="#5656ff"
       fill="#5656ff" />
    <line
       stroke-linecap="undefined"
       stroke-linejoin="undefined"
       id="svg_139"
       y2="203.06854"
       x2="57.76881"
       y1="198.6536"
       x1="39.33644"
       stroke-width="4"
       stroke="#5656ff"
       fill="none" />
    <line
       id="svg_140"
       y2="205.58172"
       x2="57.85141"
       y1="180.93823"
       x1="57.85141"
       stroke-width="4"
       stroke="#5656ff"
       fill="none" />
    <line
       stroke-linecap="undefined"
       stroke-linejoin="undefined"
       id="svg_150"
       y2="224.06986"
       x2="82.57021"
       y1="219.65492"
       x1="64.13784"
       stroke-width="4"
       stroke="#666666"
       fill="none" />
    <line
       stroke-linecap="undefined"
       stroke-linejoin="undefined"
       id="svg_151"
       y2="212.57167"
       x2="82.23693"
       y1="207.59794"
       x1="61.47159"
       stroke-width="4"
       stroke="#666666"
       fill="none" />
    <rect
       id="svg_152"
       height="7.99874"
       width="18.16381"
       y="212.07019"
       x="62.71489"
       stroke-width="4"
       stroke="#666666"
       fill="#666666" />
    <rect
       id="svg_153"
       height="7.16555"
       width="0.49991"
       y="207.40426"
       x="61.71506"
       stroke-width="2"
       stroke="#666666"
       fill="#666666" />
    <line
       stroke-linecap="undefined"
       stroke-linejoin="undefined"
       id="svg_154"
       y2="229.90228"
       x2="104.90002"
       y1="225.48734"
       x1="86.46766"
       stroke-width="4"
       stroke="#ff56ff"
       fill="none" />
    <line
       stroke-linecap="undefined"
       stroke-linejoin="undefined"
       id="svg_155"
       y2="218.40408"
       x2="104.56675"
       y1="213.43035"
       x1="83.80141"
       stroke-width="4"
       stroke="#ff56ff"
       fill="none" />
    <rect
       id="svg_156"
       height="7.99874"
       width="18.16381"
       y="217.90261"
       x="85.04471"
       stroke-width="4"
       stroke="#ff56ff"
       fill="#ff56ff" />
    <rect
       id="svg_157"
       height="7.16555"
       width="0.49991"
       y="213.23668"
       x="84.04487"
       stroke-width="2"
       stroke="#ff56ff"
       fill="#ff56ff" />
    <line
       stroke-linecap="undefined"
       stroke-linejoin="undefined"
       id="svg_158"
       y2="233.735"
       x2="126.56328"
       y1="229.32007"
       x1="108.13091"
       stroke-width="4"
       stroke="#ffff56"
       fill="none" />
    <line
       stroke-linecap="undefined"
       stroke-linejoin="undefined"
       id="svg_159"
       y2="222.23681"
       x2="126.23"
       y1="217.26308"
       x1="105.46467"
       stroke-width="4"
       stroke="#ffff56"
       fill="none" />
    <rect
       id="svg_160"
       height="7.99874"
       width="18.16381"
       y="221.73534"
       x="106.70796"
       stroke-width="4"
       stroke="#ffff56"
       fill="#ffff56" />
    <rect
       id="svg_161"
       height="7.16555"
       width="0.49991"
       y="217.06941"
       x="105.70813"
       stroke-width="2"
       stroke="#ffff56"
       fill="#ffff56" />
    <rect
       id="svg_173"
       height="7.16555"
       width="0.49991"
       y="228.08191"
       x="149.57083"
       stroke-width="2"
       stroke="#56ff56"
       fill="#56ff56" />
    <line
       stroke-linecap="undefined"
       stroke-linejoin="undefined"
       id="svg_174"
       y2="239.18797"
       x2="148.36561"
       y1="234.77303"
       x1="129.93325"
       stroke-width="4"
       stroke="#56ffff"
       fill="none" />
    <line
       stroke-linecap="undefined"
       stroke-linejoin="undefined"
       id="svg_175"
       y2="227.68978"
       x2="148.03233"
       y1="222.71604"
       x1="127.267"
       stroke-width="4"
       stroke="#56ffff"
       fill="none" />
    <rect
       id="svg_176"
       height="7.99874"
       width="18.16381"
       y="227.1883"
       x="128.5103"
       stroke-width="4"
       stroke="#56ffff"
       fill="#56ffff" />
    <rect
       id="svg_177"
       height="7.16555"
       width="0.49991"
       y="222.52237"
       x="127.51046"
       stroke-width="2"
       stroke="#56ffff"
       fill="#56ffff" />
    <line
       stroke-linecap="undefined"
       stroke-linejoin="undefined"
       id="svg_179"
       y2="207.7568"
       x2="60.09617"
       y1="202.78306"
       x1="39.33084"
       stroke-width="4"
       stroke="#ffaa56"
       fill="none" />
    <rect
       id="svg_181"
       height="7.16555"
       width="0.49991"
       y="202.58939"
       x="39.5743"
       stroke-width="2"
       stroke="#ffaa56"
       fill="#ffaa56" />
    <line
       stroke-linecap="undefined"
       stroke-linejoin="undefined"
       id="svg_79"
       y2="243.26249"
       x2="151.02331"
       y1="218.98056"
       x1="49.64624"
       stroke-width="4"
       stroke="#000"
       fill="none" />
    <line
       stroke-linecap="undefined"
       stroke-linejoin="undefined"
       id="svg_78"
       y2="148.13828"
       x2="153.35509"
       y1="123.28388"
       x1="49.58794"
       stroke-width="4"
       stroke="#000"
       fill="none" />
    <line
       stroke-linecap="undefined"
       stroke-linejoin="undefined"
       id="svg_1"
       y2="112"
       x2="272"
       y1="72"
       x1="105"
       stroke-width="4"
       stroke="#000"
       fill="none" />
    <line
       stroke-linecap="undefined"
       stroke-linejoin="undefined"
       id="svg_3"
       y2="113.0188"
       x2="270"
       y1="246"
       x1="270"
       stroke-width="4"
       stroke="#000"
       fill="none" />
    <line
       fill="none"
       stroke="#000"
       stroke-width="4"
       x1="19"
       y1="95.575"
       x2="105"
       y2="72"
       id="svg_4"
       stroke-linejoin="undefined"
       stroke-linecap="undefined" />
    <line
       fill="none"
       stroke="#000"
       stroke-width="4"
       x1="186"
       y1="136.575"
       x2="272"
       y2="113"
       id="svg_5"
       stroke-linejoin="undefined"
       stroke-linecap="undefined" />
    <line
       stroke-linecap="undefined"
       stroke-linejoin="undefined"
       id="svg_6"
       y2="267"
       x2="185"
       y1="227"
       x1="18"
       stroke-width="4"
       stroke="#000"
       fill="none" />
    <line
       fill="none"
       stroke="#000"
       stroke-width="4"
       x1="159"
       y1="107"
       x2="236"
       y2="53"
       id="svg_9"
       stroke-linejoin="undefined"
       stroke-linecap="undefined" />
    <line
       fill="none"
       stroke="#000"
       stroke-width="4"
       x1="118"
       y1="99"
       x2="74"
       y2="25"
       id="svg_31"
       stroke-linejoin="undefined"
       stroke-linecap="undefined" />
    <ellipse
       fill="none"
       stroke="#000"
       stroke-width="2"
       cx="72"
       cy="21.5"
       id="svg_32"
       rx="6"
       ry="5.5" />
    <ellipse
       fill="none"
       stroke="#000"
       stroke-width="2"
       cx="239"
       cy="48.5"
       id="svg_33"
       rx="6"
       ry="5.5" />
    <line
       fill="none"
       stroke="#000"
       stroke-width="4"
       x1="186"
       y1="267.575"
       x2="272"
       y2="244"
       id="svg_34"
       stroke-linejoin="undefined"
       stroke-linecap="undefined" />
  </g>
  <circle
     id="path3"
     style="fill:#000000;stroke:#000000"
     cx="36.673477"
     cy="135.11281"
     r="0.033433173" />
  <path
     style="fill:#000000"
     id="path4"
     d="m 37.981239,134.14997 c 0.179872,-0.52765 0.328922,-1.06552 0.438297,-1.6121 0.07381,-0.39147 0.0919,-0.78936 0.09639,-1.18668 5.92e-4,-0.23856 -0.0014,-0.47713 -0.0021,-0.71569 -7.57e-4,-0.28539 -9.29e-4,-0.57077 -0.001,-0.85616 -5.7e-5,-0.21394 -4e-5,-0.42788 -3.2e-5,-0.64181 9e-6,-0.23196 1.2e-5,-0.46391 1.4e-5,-0.69587 10e-7,-0.16198 2e-6,-0.32396 2e-6,-0.48595 -0.02214,-0.23607 0.107147,-0.54932 -0.06087,0.33208 -0.01452,0.0762 -0.08489,0.14188 -0.07799,0.21909 0.0015,0.0163 0.126274,-0.2957 0.134844,-0.31686 0.134238,-0.30989 0.198844,-0.64165 0.23283,-0.9758 0.01155,-0.13463 0.01329,-0.26971 0.01402,-0.40472 1.79e-4,-0.0333 0.0044,-0.13277 1.53e-4,-0.0998 -0.06851,0.53194 -0.08207,0.55768 -0.01968,0.35784 0.06278,-0.17538 0.0961,-0.3591 0.14221,-0.53897 0.01118,-0.0436 -0.02083,0.0877 -0.02898,0.13194 -0.01488,0.0808 0.06567,-0.15063 0.09643,-0.2268 0.162046,-0.62312 0.16543,-0.52454 0.345102,-1.10549 -0.07967,0.39982 0.270364,-1.13916 0.140917,-0.72651 -0.01961,0.0625 -0.164541,0.56223 0.02193,0.0772 0.162645,-0.41429 -0.07958,0.12841 -0.104054,0.19922 -0.0303,0.0877 0.204399,-0.30905 0.146826,-0.23634 -0.488489,0.61693 -0.119141,0.18627 -0.03598,0.0921 0.03765,-0.0468 0.156759,-0.18154 0.112945,-0.14044 -0.06732,0.0631 -0.120014,0.14038 -0.183896,0.20699 -0.271813,0.28342 0.415165,-0.28779 0.02635,-0.008 1.000421,-0.57094 -0.227758,0.0373 0.595425,-0.32381 0.192296,-0.12763 0.26334,-0.10621 0.12651,-0.0583 -0.265486,0.18418 0.947334,-0.32925 0.848794,-0.28029 -0.03733,0.0185 -0.07896,0.033 -0.108156,0.0628 0.389828,-0.0243 0.780592,-0.0273 1.171046,-0.0294 0.322582,-9.4e-4 0.645166,2e-4 0.967747,8.2e-4 0.336925,5.8e-4 0.673851,6.6e-4 1.010777,7.3e-4 -0.106178,0.008 0.432738,-0.009 0.324807,3e-5 -0.47326,0.0375 0.137234,0.0801 0.229461,0.10023 0.212299,0.0339 0.42604,0.0912 0.641854,0.0996 0.05865,0.002 -0.117493,-0.0361 -0.174616,-0.0227 -0.0828,0.0195 0.162634,0.05 0.243819,0.0755 0.273157,0.0829 0.552435,0.13815 0.833872,0.18291 0.05884,0.009 -0.125709,-0.06 -0.176407,-0.0287 -0.04416,0.0273 0.09919,0.0305 0.148791,0.0458 0.473507,0.14855 0.945941,0.29299 1.43486,0.39211 0.301969,0.10214 0.602137,0.17705 0.864353,0.26957 0.319593,0.12336 0.692708,0.15631 0.952488,0.27169 0.278169,0.12887 0.576775,0.20682 0.8769,0.2639 0.02819,0.005 0.05639,0.009 0.08458,0.0138 2.908292,0.44707 3.540552,-3.66588 0.63226,-4.11295 v 0 c 0.0093,0.002 0.01861,0.003 0.02791,0.005 0.08539,0.0279 0.278157,0.13108 -0.03256,-0.0157 -0.375462,-0.15206 -0.759666,-0.27216 -1.157003,-0.34995 -0.471938,-0.16652 -0.954316,-0.29309 -1.436414,-0.42659 -0.350451,-0.0674 -0.683857,-0.18018 -1.023808,-0.28824 -0.275886,-0.0849 -0.525126,-0.14372 -0.788713,-0.19452 -0.357199,-0.11139 -0.718672,-0.20624 -1.090428,-0.25158 -0.468039,-0.0899 -0.931153,-0.23351 -1.415168,-0.19047 -0.334543,-7e-5 -0.669086,-1.5e-4 -1.003628,-7.2e-4 -0.332861,-6.4e-4 -0.665723,-0.002 -0.998584,-7.7e-4 -0.540026,0.003 -1.080946,0.007 -1.61918,0.056 -0.418431,0.0566 -0.881075,0.115 -1.254222,0.33267 -0.12175,0.071 0.812503,-0.35985 0.410348,-0.10208 -0.458317,0.0736 -0.916245,0.18427 -1.324435,0.41471 0.154411,-0.0431 -0.03289,0.007 -0.195071,0.0801 -0.246648,0.11046 -0.531052,0.2515 -0.745404,0.42425 -0.03698,0.0298 0.08318,-0.0458 0.124776,-0.0688 -0.410826,0.24814 -0.83621,0.51079 -1.132718,0.89898 0.170709,-0.13465 -0.01092,0.006 -0.341394,0.42815 -0.138946,0.17736 -0.317728,0.582 -0.369842,0.68679 -0.01046,0.021 -0.01517,0.0444 -0.02276,0.0667 -0.09694,0.30161 -0.258725,0.615 -0.25752,0.93267 -0.01087,0.0663 -0.350203,0.94585 -0.22799,0.76355 -0.101858,0.3184 -0.248218,0.62566 -0.320476,0.95464 -0.110937,0.37513 -0.06778,0.19846 -0.156255,0.83431 -0.0062,0.0445 -6.8e-5,0.0898 -2.34e-4,0.13472 -3.2e-5,0.009 -0.0023,0.0342 -1.37e-4,0.0259 0.0037,-0.014 0.0031,-0.0288 0.0047,-0.0432 0.02283,-0.0973 0.127687,-0.40192 0.04735,-0.18016 -0.163589,0.4204 -0.334103,0.8485 -0.294683,1.31383 0,0.16197 0,0.32394 -2e-6,0.48592 -2e-6,0.23191 -5e-6,0.46382 -1.4e-5,0.69574 -8e-6,0.21446 -2.5e-5,0.42893 3.2e-5,0.64339 9.9e-5,0.28887 2.75e-4,0.57775 0.001,0.86662 6.31e-4,0.22037 0.0022,0.44074 0.0023,0.66111 -0.0012,0.14264 -0.0016,0.28554 -0.01859,0.42737 -0.07056,0.37344 -0.182542,0.73805 -0.302774,1.0982 -0.930486,2.79146 3.017231,4.10737 3.947717,1.31591 z" />
  <path
     style="fill:#000000"
     id="path5"
     d="m 48.293827,216.03006 c -0.651328,-0.0328 -1.313372,0.055 -1.961699,-0.022 -0.551694,-0.0751 -1.104189,-0.1421 -1.659299,-0.18594 0.425648,0.0237 -0.662809,-0.16219 -0.507967,-0.16984 -0.379184,-0.14906 -0.80449,-0.15617 -1.174733,-0.32824 -0.5021,-0.17261 -0.995449,-0.36841 -1.502946,-0.52529 -0.196985,-0.0903 -0.556352,-0.21043 -0.624164,-0.25185 0.01696,0.007 0.0345,0.028 0.05088,0.02 0.01325,-0.006 -0.02176,-0.0201 -0.03407,-0.0282 -0.09163,-0.0603 -0.186375,-0.11588 -0.277516,-0.17694 -0.02995,-0.0201 0.0654,0.0316 0.09378,0.0538 0.07579,0.0593 0.122141,0.17713 0.217541,0.18984 0.08068,0.0108 -0.108177,-0.12165 -0.162266,-0.18247 0.01208,0.0105 0.04442,0.0455 0.03625,0.0317 -0.191919,-0.32398 -0.50994,-0.62412 -0.757059,-0.91242 -0.111633,-0.30299 -0.301331,-0.70874 -0.396466,-1.06828 -0.100776,-0.54991 -0.2317,-1.09366 -0.336544,-1.64293 -0.04692,-0.45111 -0.09298,-0.8955 -0.207517,-1.33656 -0.04597,-0.15206 -0.07782,-0.30865 -0.09094,-0.4667 0.0091,-0.38818 -0.07989,-0.76844 -0.150386,-1.14762 -0.108138,-0.42376 -0.242901,-0.83939 -0.314784,-1.27133 -0.01674,-0.10115 -0.02479,-0.20441 -0.02392,-0.30703 -4.61e-4,-0.0757 7.5e-4,-0.15136 0.0014,-0.22704 0.02437,-2.94235 -4.13675,-2.97681 -4.161117,-0.0345 v 0 c -8.53e-4,0.10968 -0.0026,0.21936 -9.98e-4,0.32905 0.0067,0.31699 0.02899,0.63406 0.08392,0.94672 0.07882,0.44868 0.172156,0.90144 0.325455,1.33063 0.01568,0.0832 0.03076,0.16649 0.04705,0.24956 0.0095,0.0484 -0.01642,0.16075 0.03028,0.14485 0.04879,-0.0166 -0.02448,-0.20079 -0.0016,-0.15462 0.07437,0.14993 -0.05115,0.39983 0.02408,0.55543 0.04185,0.39812 0.112316,0.79309 0.225266,1.17767 0.0018,-0.0346 0.0017,-0.13839 0.0054,-0.10391 0.03909,0.36598 0.03875,0.73746 0.121513,1.09853 0.13085,0.68067 0.283667,1.35711 0.431285,2.03398 0.282533,0.92234 0.641014,1.83115 1.23122,2.60458 0.343628,0.39951 0.488806,0.55403 0.790069,0.95941 0.445384,0.46601 0.766665,0.73699 1.293168,1.03354 0.430282,0.21582 0.884121,0.37418 1.335782,0.53906 0.425492,0.1157 0.827688,0.30874 1.248399,0.43994 0.461362,0.1631 0.930594,0.28521 1.403725,0.40584 0.464483,0.12907 0.928899,0.26832 1.407449,0.34047 0.549759,0.0413 1.094957,0.12138 1.642414,0.18459 0.765777,0.0523 1.532303,0.0345 2.299661,0.0357 2.942455,0 2.942455,-4.16126 0,-4.16126 z" />
  <path
     style="fill:#000000"
     id="path6"
     d="m 51.483347,216.9872 c -0.483967,-0.0317 -0.941635,-0.17628 -1.409176,-0.29179 0.049,0.16833 -0.383916,-0.2114 -0.374067,-0.084 0.0043,0.0559 0.109619,0.024 0.164077,0.0375 0.01677,0.004 0.06513,0.0227 0.04949,0.0154 -0.07037,-0.033 -0.142223,-0.0627 -0.213994,-0.0925 -0.05292,-0.022 -0.106689,-0.0418 -0.160033,-0.0628 -0.208875,-0.10541 -1.876446,-0.41388 -0.480507,-0.0975 0.196875,0.0981 0.210737,0.0918 0.359205,0.20135 0.0279,0.0206 0.109193,0.0853 0.08019,0.0663 -0.360891,-0.23675 -0.582689,-0.40198 -0.973366,-0.53196 -2.81298,-0.86325 -4.033791,3.11491 -1.220812,3.97815 v 0 c -0.262808,-0.0968 -0.376595,-0.23144 -0.636466,-0.39602 -0.329632,-0.20875 0.956426,0.78767 0.754095,0.50787 0.687611,0.1859 0.844929,0.25928 0.615764,0.15256 0.344381,0.12794 0.678131,0.29352 1.046601,0.34735 0.599291,0.14475 1.193061,0.31725 1.810505,0.36941 2.912882,0.41612 3.501373,-3.70331 0.588491,-4.11944 z" />
  <path
     style="fill:#000000"
     id="path7"
     d="m 169.71551,163.08675 c -0.0876,-0.84684 -0.13243,-1.69722 -0.16599,-2.54766 -0.0206,-0.55877 -0.0256,-1.11792 -0.0271,-1.677 0.0408,-0.49835 -0.13219,-0.97194 -0.1976,-1.45778 -0.0296,-0.25507 -0.038,-0.51167 -0.0419,-0.76819 -0.003,-0.25433 -0.002,-0.50868 -10e-4,-0.76302 5.3e-4,-0.23298 8e-4,-0.46596 9.4e-4,-0.69894 0.0371,-0.40726 -0.13248,-0.7847 -0.21808,-1.16959 -0.008,-0.44921 -0.14682,-0.88038 -0.28693,-1.30185 -0.30883,-0.81714 -0.94167,-1.40533 -1.55947,-1.99037 -0.67209,-0.58475 -1.48235,-0.96207 -2.27091,-1.35991 -0.61886,-0.29497 -1.25646,-0.54339 -1.9057,-0.76184 -0.54633,-0.15946 -1.09055,-0.32586 -1.63408,-0.49615 -0.72532,-0.18706 -1.46912,-0.29753 -2.20867,-0.41548 -0.57082,-0.12573 -1.13371,-0.28201 -1.70224,-0.41698 -0.57662,-0.14396 -1.13836,-0.32277 -1.70313,-0.50606 -0.42227,-0.18357 -0.87894,-0.2895 -1.29025,-0.49643 -0.0809,-0.0352 -0.16125,-0.0715 -0.24257,-0.10566 -0.21386,-0.0898 -0.42659,-0.16538 -0.65165,-0.22455 -0.0719,-0.0189 -0.26148,-0.10718 -0.21794,-0.047 0.0448,0.0619 0.14859,0.0359 0.22288,0.0538 0.23171,0.0436 -0.57345,-0.22513 -0.59572,-0.23192 -2.82133,-0.83555 -4.00297,3.15442 -1.18164,3.98996 v 0 c -0.33207,-0.18139 0.27971,0.15003 0.3029,0.13324 1.13965,0.35263 -0.16538,-0.0706 0.56891,0.18638 0.58618,0.27513 1.20286,0.4737 1.80799,0.70258 0.67192,0.21474 1.34273,0.42211 2.02669,0.59616 0.66875,0.15552 1.32839,0.34967 2.004,0.47634 0.5402,0.0851 1.07991,0.176 1.61689,0.27669 0.5261,0.16465 1.05503,0.32061 1.58237,0.47958 0.45772,0.14044 0.89562,0.333 1.3331,0.5258 0.42946,0.21443 0.86205,0.4314 1.27809,0.66342 0.0279,0.0264 0.66429,0.73209 0.51112,0.39508 0.0128,0.0367 0.003,0.0932 0.0383,0.11009 0.036,0.0173 -0.0101,-0.15946 -0.005,-0.11978 0.0292,0.24298 0.0319,0.48978 0.0883,0.7295 0.0432,0.19405 0.27844,1.28664 0.13149,0.21119 -0.005,-0.0367 -3e-5,0.0741 -4e-5,0.11118 -1.4e-4,0.23084 -4e-4,0.46168 -9.3e-4,0.69253 -6e-4,0.28026 -0.002,0.56053 0.002,0.84078 0.008,0.44368 0.0276,0.88759 0.089,1.32756 0.0589,0.36955 0.16036,0.68364 0.14993,0.84113 0.002,0.61026 0.008,1.22059 0.0304,1.83049 0.0396,0.99199 0.0919,1.98434 0.20455,2.97113 0.41612,2.91288 4.53556,2.32439 4.11943,-0.58849 z" />
  <circle
     id="path8"
     style="fill:#000000;stroke:#000000"
     cx="167.68465"
     cy="241.51416"
     r="0.033433173" />
  <circle
     id="path9"
     style="fill:#000000;stroke:#000000"
     cx="164.54811"
     cy="244.40942"
     r="0.033433173" />
  <circle
     id="path10"
     style="fill:#000000;stroke:#000000"
     cx="167.68465"
     cy="230.65688"
     r="0.033433173" />
  <path
     style="fill:#000000"
     id="path11"
     d="m 165.60402,230.8589 c 0,0.69121 0,1.38242 0,2.07363 0,0.37864 0,0.75729 0,1.13593 0,0.22261 0,0.44522 0,0.66783 0,0.16549 0,0.33098 0,0.49647 -0.0241,0.45853 0.0499,0.90715 0.18843,1.34417 0.0381,0.10204 0.0356,0.21312 0.0434,0.32452 0.0121,0.27693 0.011,0.55423 0.0112,0.83136 -1.1e-4,0.2026 -5.3e-4,0.40521 -9.6e-4,0.60782 -0.006,2.94244 4.15493,2.95139 4.16125,0.009 v 0 c 4.4e-4,-0.2064 8.7e-4,-0.41279 9.7e-4,-0.61919 -2.5e-4,-0.3828 6.9e-4,-0.76599 -0.0234,-1.14822 -0.0381,-0.47437 -0.10588,-0.94717 -0.27056,-1.39644 0.16527,0.72033 0.005,0.47794 0.051,0.047 0,-0.16549 0,-0.33098 0,-0.49647 0,-0.22261 0,-0.44522 0,-0.66783 0,-0.37864 0,-0.75729 0,-1.13593 0,-0.69121 0,-1.38242 0,-2.07363 0,-2.94246 -4.16126,-2.94246 -4.16126,0 z" />
  <circle
     id="path12"
     style="fill:#000000;stroke:#000000"
     cx="159.48138"
     cy="243.44434"
     r="0.033433173" />
  <circle
     id="path13"
     style="fill:#000000;stroke:#000000"
     cx="155.62102"
     cy="243.44434"
     r="0.033433173" />
  <circle
     id="path14"
     style="fill:#000000;stroke:#000000"
     cx="160.68774"
     cy="244.6507"
     r="0.033433173" />
  <circle
     id="path15"
     style="fill:#000000;stroke:#000000"
     cx="157.30992"
     cy="244.16817"
     r="0.033433173" />
  <circle
     id="path16"
     style="fill:#000000;stroke:#000000"
     cx="148.6241"
     cy="244.16817"
     r="0.033433173" />
  <circle
     id="path17"
     style="fill:#000000;stroke:#000000"
     cx="156.82738"
     cy="243.9269"
     r="0.033433173" />
  <path
     style="fill:#000000;stroke-width:1.05868"
     id="path18"
     d="m 147.11995,244.51083 c 0.8537,0.23983 1.72524,0.42704 2.57291,0.68366 0.62181,0.20648 1.28573,0.3661 1.91394,0.48898 0.53813,0.16168 1.09812,0.24433 1.66138,0.29365 0.63693,0.0151 0.38269,0.0281 1.06962,0.14385 0.6077,0.0931 1.22483,0.11316 1.84002,0.1247 0.74658,0.007 1.49325,0.005 2.23986,0.004 0.70735,-0.0279 1.40235,-0.15234 2.10677,-0.20706 0.57398,-0.0283 1.14544,-0.0319 1.71778,-0.0817 0.63095,-0.0692 1.24551,-0.20486 1.86311,-0.33357 0.60875,-0.0732 1.18371,-0.2563 1.75135,-0.45742 0.66344,-0.18604 1.25277,-0.50762 1.80679,-0.87531 0.48072,-0.30106 0.89354,-0.66769 1.27669,-1.06149 0.34184,-0.37345 0.55467,-0.81172 0.68528,-1.27561 0.0231,-0.0819 0.0891,-0.32721 0.0535,-0.24892 -0.0545,0.11982 -0.074,0.25006 -0.11085,0.3751 -0.31444,0.61763 0.19581,-0.34284 0.24434,-0.44979 0.15806,-0.33116 0.19186,-0.68487 0.19606,-1.03799 -4e-5,-0.14734 -0.001,-0.29469 -0.001,-0.44204 -6e-5,-0.0269 -1.2e-4,-0.0538 -1.8e-4,-0.0807 -0.007,-2.94244 -4.67087,-2.93371 -4.66396,0.009 v 0 c 7e-5,0.0277 1.4e-4,0.0554 2.1e-4,0.0832 4.1e-4,0.13522 0.001,0.27044 0.001,0.40567 0.0291,-0.16452 0.0882,-0.32376 0.13829,-0.48422 -0.0133,0.031 -0.0521,0.11057 0.0212,-0.008 -0.0726,0.11855 -0.14535,0.2371 -0.21802,0.35565 -0.41148,1.14631 -0.17842,0.39038 0.0315,0.17789 0.19983,-0.16189 -0.0931,0.0734 -0.14149,0.13465 -0.0359,0.0454 0.0987,-0.0681 0.14397,-0.10634 0.0414,-0.0349 -0.0882,0.0643 -0.13226,0.0965 -0.20597,0.14784 -0.10322,0.0748 -0.30824,0.21903 -0.17671,0.11732 -0.28764,0.23154 -0.74443,0.34654 -0.36751,0.13026 -0.69355,0.24117 -1.10092,0.27479 -0.45735,0.097 -0.90613,0.206 -1.37483,0.25495 -0.49571,0.0289 -1.0391,0.0246 -1.55219,0.0658 -0.56681,0.0464 -1.13096,0.11178 -1.69331,0.19037 -0.71421,5.2e-4 -1.42845,0.002 -2.14264,-0.004 -0.36374,-0.006 -0.72885,-0.0129 -1.08979,-0.0569 -0.49555,-0.0766 -0.98416,-0.20844 -1.49274,-0.19554 -0.27629,-0.0165 -0.54526,-0.069 -0.80661,-0.15202 -0.57651,-0.1324 -1.16108,-0.22988 -1.71544,-0.43434 -0.85003,-0.24951 -1.71363,-0.45758 -2.57181,-0.68334 -3.12867,-0.93049 -4.60354,3.01723 -1.47487,3.94772 z" />
</svg>
